ISO-10303-21;
HEADER;
/* Generated by software containing ST-Developer
 * from STEP Tools, Inc. (www.steptools.com) 
 */

FILE_DESCRIPTION(
/* description */ ('KiCad electronic assembly'),
/* implementation_level */ '2;1');

FILE_NAME(
/* name */ 'nfcxpansion.step',
/* time_stamp */ '2026-08-20T21:19:33+03:00',
/* author */ (''),
/* organization */ (''),
/* preprocessor_version */ 'ST-DEVELOPER v20.1',
/* originating_system */ 'Autodesk Translation Framework v15.8.0.0',
/* authorisation */ '');

FILE_SCHEMA (('AUTOMOTIVE_DESIGN { 1 0 10303 214 3 1 1 }'));
ENDSEC;

DATA;
#10=MECHANICAL_DESIGN_GEOMETRIC_PRESENTATION_REPRESENTATION('',(#13),#1337);
#11=SHAPE_REPRESENTATION_RELATIONSHIP('SRR','None',#1343,#12);
#12=ADVANCED_BREP_SHAPE_REPRESENTATION('',(#14),#1336);
#13=STYLED_ITEM('',(#1352),#14);
#14=MANIFOLD_SOLID_BREP('Body1',#787);
#15=FACE_BOUND('',#168,.T.);
#16=TOROIDAL_SURFACE('',#807,2.,0.999999999999996);
#17=TOROIDAL_SURFACE('',#813,2.,1.);
#18=SPHERICAL_SURFACE('',#799,0.999999999999996);
#19=SPHERICAL_SURFACE('',#803,0.999999999999996);
#20=SPHERICAL_SURFACE('',#819,0.999999999999996);
#21=SPHERICAL_SURFACE('',#826,0.999999999999996);
#22=SPHERICAL_SURFACE('',#843,1.);
#23=SPHERICAL_SURFACE('',#845,1.);
#24=CIRCLE('',#791,1.35);
#25=CIRCLE('',#792,1.35);
#26=CIRCLE('',#795,3.34999999999999);
#27=CIRCLE('',#796,3.34999999999999);
#28=CIRCLE('',#800,0.999999999999996);
#29=CIRCLE('',#801,0.999999999999996);
#30=CIRCLE('',#802,1.);
#31=CIRCLE('',#804,0.999999999999996);
#32=CIRCLE('',#805,0.999999999999996);
#33=CIRCLE('',#806,1.);
#34=CIRCLE('',#808,2.);
#35=CIRCLE('',#809,1.00000000000001);
#36=CIRCLE('',#810,1.);
#37=CIRCLE('',#811,0.999999999999996);
#38=CIRCLE('',#814,1.00000000000001);
#39=CIRCLE('',#815,0.999999999999996);
#40=CIRCLE('',#816,2.00000000000001);
#41=CIRCLE('',#817,1.);
#42=CIRCLE('',#820,0.999999999999996);
#43=CIRCLE('',#821,0.999999999999996);
#44=CIRCLE('',#822,1.);
#45=CIRCLE('',#824,1.);
#46=CIRCLE('',#827,0.999999999999996);
#47=CIRCLE('',#828,0.999999999999996);
#48=CIRCLE('',#829,1.);
#49=CIRCLE('',#831,1.);
#50=CIRCLE('',#837,1.);
#51=CIRCLE('',#839,0.999999999999996);
#52=CIRCLE('',#841,1.);
#53=CIRCLE('',#842,0.999999999999996);
#54=CIRCLE('',#844,0.999999253000267);
#55=CIRCLE('',#846,0.999999252925003);
#56=CIRCLE('',#850,0.999999252925003);
#57=CIRCLE('',#868,0.999999253000267);
#58=CYLINDRICAL_SURFACE('',#790,1.35);
#59=CYLINDRICAL_SURFACE('',#794,3.34999999999999);
#60=CYLINDRICAL_SURFACE('',#812,1.);
#61=CYLINDRICAL_SURFACE('',#818,1.);
#62=CYLINDRICAL_SURFACE('',#823,1.);
#63=CYLINDRICAL_SURFACE('',#825,1.);
#64=CYLINDRICAL_SURFACE('',#830,1.);
#65=CYLINDRICAL_SURFACE('',#832,1.);
#66=CYLINDRICAL_SURFACE('',#833,1.);
#67=CYLINDRICAL_SURFACE('',#834,1.);
#68=CYLINDRICAL_SURFACE('',#835,1.);
#69=CYLINDRICAL_SURFACE('',#836,1.);
#70=CYLINDRICAL_SURFACE('',#838,1.);
#71=CYLINDRICAL_SURFACE('',#840,1.);
#72=CYLINDRICAL_SURFACE('',#849,0.999999252925003);
#73=CYLINDRICAL_SURFACE('',#867,0.999999253000267);
#74=FACE_OUTER_BOUND('',#121,.T.);
#75=FACE_OUTER_BOUND('',#122,.T.);
#76=FACE_OUTER_BOUND('',#123,.T.);
#77=FACE_OUTER_BOUND('',#124,.T.);
#78=FACE_OUTER_BOUND('',#125,.T.);
#79=FACE_OUTER_BOUND('',#126,.T.);
#80=FACE_OUTER_BOUND('',#127,.T.);
#81=FACE_OUTER_BOUND('',#128,.T.);
#82=FACE_OUTER_BOUND('',#129,.T.);
#83=FACE_OUTER_BOUND('',#130,.T.);
#84=FACE_OUTER_BOUND('',#131,.T.);
#85=FACE_OUTER_BOUND('',#132,.T.);
#86=FACE_OUTER_BOUND('',#133,.T.);
#87=FACE_OUTER_BOUND('',#134,.T.);
#88=FACE_OUTER_BOUND('',#135,.T.);
#89=FACE_OUTER_BOUND('',#136,.T.);
#90=FACE_OUTER_BOUND('',#137,.T.);
#91=FACE_OUTER_BOUND('',#138,.T.);
#92=FACE_OUTER_BOUND('',#139,.T.);
#93=FACE_OUTER_BOUND('',#140,.T.);
#94=FACE_OUTER_BOUND('',#141,.T.);
#95=FACE_OUTER_BOUND('',#142,.T.);
#96=FACE_OUTER_BOUND('',#143,.T.);
#97=FACE_OUTER_BOUND('',#144,.T.);
#98=FACE_OUTER_BOUND('',#145,.T.);
#99=FACE_OUTER_BOUND('',#146,.T.);
#100=FACE_OUTER_BOUND('',#147,.T.);
#101=FACE_OUTER_BOUND('',#148,.T.);
#102=FACE_OUTER_BOUND('',#149,.T.);
#103=FACE_OUTER_BOUND('',#150,.T.);
#104=FACE_OUTER_BOUND('',#151,.T.);
#105=FACE_OUTER_BOUND('',#152,.T.);
#106=FACE_OUTER_BOUND('',#153,.T.);
#107=FACE_OUTER_BOUND('',#154,.T.);
#108=FACE_OUTER_BOUND('',#155,.T.);
#109=FACE_OUTER_BOUND('',#156,.T.);
#110=FACE_OUTER_BOUND('',#157,.T.);
#111=FACE_OUTER_BOUND('',#158,.T.);
#112=FACE_OUTER_BOUND('',#159,.T.);
#113=FACE_OUTER_BOUND('',#160,.T.);
#114=FACE_OUTER_BOUND('',#161,.T.);
#115=FACE_OUTER_BOUND('',#162,.T.);
#116=FACE_OUTER_BOUND('',#163,.T.);
#117=FACE_OUTER_BOUND('',#164,.T.);
#118=FACE_OUTER_BOUND('',#165,.T.);
#119=FACE_OUTER_BOUND('',#166,.T.);
#120=FACE_OUTER_BOUND('',#167,.T.);
#121=EDGE_LOOP('',(#497,#498,#499,#500));
#122=EDGE_LOOP('',(#501,#502,#503,#504));
#123=EDGE_LOOP('',(#505,#506,#507,#508));
#124=EDGE_LOOP('',(#509,#510,#511,#512));
#125=EDGE_LOOP('',(#513,#514,#515,#516));
#126=EDGE_LOOP('',(#517,#518,#519,#520,#521,#522,#523,#524));
#127=EDGE_LOOP('',(#525,#526,#527));
#128=EDGE_LOOP('',(#528,#529,#530));
#129=EDGE_LOOP('',(#531,#532,#533,#534));
#130=EDGE_LOOP('',(#535,#536,#537,#538));
#131=EDGE_LOOP('',(#539,#540,#541,#542));
#132=EDGE_LOOP('',(#543,#544,#545,#546));
#133=EDGE_LOOP('',(#547,#548,#549));
#134=EDGE_LOOP('',(#550,#551,#552,#553));
#135=EDGE_LOOP('',(#554,#555,#556,#557));
#136=EDGE_LOOP('',(#558,#559,#560));
#137=EDGE_LOOP('',(#561,#562,#563,#564));
#138=EDGE_LOOP('',(#565,#566,#567,#568));
#139=EDGE_LOOP('',(#569,#570,#571,#572));
#140=EDGE_LOOP('',(#573,#574,#575,#576));
#141=EDGE_LOOP('',(#577,#578,#579,#580));
#142=EDGE_LOOP('',(#581,#582,#583,#584));
#143=EDGE_LOOP('',(#585,#586,#587,#588));
#144=EDGE_LOOP('',(#589,#590,#591,#592));
#145=EDGE_LOOP('',(#593,#594,#595));
#146=EDGE_LOOP('',(#596,#597,#598));
#147=EDGE_LOOP('',(#599,#600,#601,#602,#603,#604));
#148=EDGE_LOOP('',(#605,#606,#607,#608,#609,#610,#611,#612,#613));
#149=EDGE_LOOP('',(#614,#615,#616,#617));
#150=EDGE_LOOP('',(#618,#619,#620,#621,#622,#623,#624,#625));
#151=EDGE_LOOP('',(#626,#627,#628,#629));
#152=EDGE_LOOP('',(#630,#631,#632,#633));
#153=EDGE_LOOP('',(#634,#635,#636,#637));
#154=EDGE_LOOP('',(#638,#639,#640,#641));
#155=EDGE_LOOP('',(#642,#643,#644,#645));
#156=EDGE_LOOP('',(#646,#647,#648,#649,#650,#651,#652,#653,#654));
#157=EDGE_LOOP('',(#655,#656,#657,#658));
#158=EDGE_LOOP('',(#659,#660,#661,#662,#663,#664));
#159=EDGE_LOOP('',(#665,#666,#667,#668));
#160=EDGE_LOOP('',(#669,#670,#671,#672));
#161=EDGE_LOOP('',(#673,#674,#675,#676,#677,#678));
#162=EDGE_LOOP('',(#679,#680,#681,#682,#683,#684));
#163=EDGE_LOOP('',(#685,#686,#687,#688));
#164=EDGE_LOOP('',(#689,#690,#691,#692));
#165=EDGE_LOOP('',(#693));
#166=EDGE_LOOP('',(#694,#695,#696,#697));
#167=EDGE_LOOP('',(#698,#699,#700,#701,#702,#703,#704,#705,#706,#707,#708,
#709,#710,#711,#712,#713,#714,#715));
#168=EDGE_LOOP('',(#716));
#169=LINE('',#1114,#245);
#170=LINE('',#1116,#246);
#171=LINE('',#1118,#247);
#172=LINE('',#1119,#248);
#173=LINE('',#1124,#249);
#174=LINE('',#1129,#250);
#175=LINE('',#1131,#251);
#176=LINE('',#1133,#252);
#177=LINE('',#1134,#253);
#178=LINE('',#1140,#254);
#179=LINE('',#1142,#255);
#180=LINE('',#1143,#256);
#181=LINE('',#1146,#257);
#182=LINE('',#1148,#258);
#183=LINE('',#1150,#259);
#184=LINE('',#1151,#260);
#185=LINE('',#1176,#261);
#186=LINE('',#1177,#262);
#187=LINE('',#1188,#263);
#188=LINE('',#1189,#264);
#189=LINE('',#1201,#265);
#190=LINE('',#1202,#266);
#191=LINE('',#1204,#267);
#192=LINE('',#1205,#268);
#193=LINE('',#1217,#269);
#194=LINE('',#1218,#270);
#195=LINE('',#1220,#271);
#196=LINE('',#1221,#272);
#197=LINE('',#1223,#273);
#198=LINE('',#1224,#274);
#199=LINE('',#1226,#275);
#200=LINE('',#1227,#276);
#201=LINE('',#1229,#277);
#202=LINE('',#1230,#278);
#203=LINE('',#1235,#279);
#204=LINE('',#1236,#280);
#205=LINE('',#1241,#281);
#206=LINE('',#1242,#282);
#207=LINE('',#1247,#283);
#208=LINE('',#1249,#284);
#209=LINE('',#1256,#285);
#210=LINE('',#1258,#286);
#211=LINE('',#1259,#287);
#212=LINE('',#1260,#288);
#213=LINE('',#1263,#289);
#214=LINE('',#1265,#290);
#215=LINE('',#1266,#291);
#216=LINE('',#1269,#292);
#217=LINE('',#1273,#293);
#218=LINE('',#1275,#294);
#219=LINE('',#1277,#295);
#220=LINE('',#1279,#296);
#221=LINE('',#1281,#297);
#222=LINE('',#1282,#298);
#223=LINE('',#1289,#299);
#224=LINE('',#1290,#300);
#225=LINE('',#1293,#301);
#226=LINE('',#1294,#302);
#227=LINE('',#1298,#303);
#228=LINE('',#1299,#304);
#229=LINE('',#1300,#305);
#230=LINE('',#1303,#306);
#231=LINE('',#1305,#307);
#232=LINE('',#1307,#308);
#233=LINE('',#1308,#309);
#234=LINE('',#1311,#310);
#235=LINE('',#1312,#311);
#236=LINE('',#1315,#312);
#237=LINE('',#1316,#313);
#238=LINE('',#1318,#314);
#239=LINE('',#1320,#315);
#240=LINE('',#1321,#316);
#241=LINE('',#1324,#317);
#242=LINE('',#1325,#318);
#243=LINE('',#1327,#319);
#244=LINE('',#1329,#320);
#245=VECTOR('',#874,10.);
#246=VECTOR('',#875,10.);
#247=VECTOR('',#876,10.);
#248=VECTOR('',#877,10.);
#249=VECTOR('',#882,1.35);
#250=VECTOR('',#887,10.);
#251=VECTOR('',#888,10.);
#252=VECTOR('',#889,10.);
#253=VECTOR('',#890,10.);
#254=VECTOR('',#899,10.);
#255=VECTOR('',#900,10.);
#256=VECTOR('',#901,10.);
#257=VECTOR('',#904,10.);
#258=VECTOR('',#905,10.);
#259=VECTOR('',#906,10.);
#260=VECTOR('',#907,10.);
#261=VECTOR('',#936,10.);
#262=VECTOR('',#937,10.);
#263=VECTOR('',#950,10.);
#264=VECTOR('',#951,10.);
#265=VECTOR('',#964,10.);
#266=VECTOR('',#965,10.);
#267=VECTOR('',#968,10.);
#268=VECTOR('',#969,10.);
#269=VECTOR('',#982,10.);
#270=VECTOR('',#983,10.);
#271=VECTOR('',#986,10.);
#272=VECTOR('',#987,10.);
#273=VECTOR('',#990,10.);
#274=VECTOR('',#991,10.);
#275=VECTOR('',#994,10.);
#276=VECTOR('',#995,10.);
#277=VECTOR('',#998,10.);
#278=VECTOR('',#999,10.);
#279=VECTOR('',#1004,10.);
#280=VECTOR('',#1005,10.);
#281=VECTOR('',#1010,10.);
#282=VECTOR('',#1011,10.);
#283=VECTOR('',#1016,10.);
#284=VECTOR('',#1019,10.);
#285=VECTOR('',#1030,10.);
#286=VECTOR('',#1031,10.);
#287=VECTOR('',#1032,10.);
#288=VECTOR('',#1033,10.);
#289=VECTOR('',#1036,10.);
#290=VECTOR('',#1037,10.);
#291=VECTOR('',#1038,10.);
#292=VECTOR('',#1041,10.);
#293=VECTOR('',#1046,10.);
#294=VECTOR('',#1047,10.);
#295=VECTOR('',#1048,10.);
#296=VECTOR('',#1049,10.);
#297=VECTOR('',#1050,10.);
#298=VECTOR('',#1051,10.);
#299=VECTOR('',#1062,10.);
#300=VECTOR('',#1063,10.);
#301=VECTOR('',#1066,10.);
#302=VECTOR('',#1067,10.);
#303=VECTOR('',#1070,10.);
#304=VECTOR('',#1071,10.);
#305=VECTOR('',#1072,10.);
#306=VECTOR('',#1075,10.);
#307=VECTOR('',#1076,10.);
#308=VECTOR('',#1077,10.);
#309=VECTOR('',#1078,10.);
#310=VECTOR('',#1081,10.);
#311=VECTOR('',#1082,10.);
#312=VECTOR('',#1085,10.);
#313=VECTOR('',#1086,10.);
#314=VECTOR('',#1089,10.);
#315=VECTOR('',#1090,10.);
#316=VECTOR('',#1091,10.);
#317=VECTOR('',#1094,10.);
#318=VECTOR('',#1095,10.);
#319=VECTOR('',#1098,10.);
#320=VECTOR('',#1101,10.);
#321=VERTEX_POINT('',#1112);
#322=VERTEX_POINT('',#1113);
#323=VERTEX_POINT('',#1115);
#324=VERTEX_POINT('',#1117);
#325=VERTEX_POINT('',#1121);
#326=VERTEX_POINT('',#1123);
#327=VERTEX_POINT('',#1127);
#328=VERTEX_POINT('',#1128);
#329=VERTEX_POINT('',#1130);
#330=VERTEX_POINT('',#1132);
#331=VERTEX_POINT('',#1139);
#332=VERTEX_POINT('',#1141);
#333=VERTEX_POINT('',#1145);
#334=VERTEX_POINT('',#1147);
#335=VERTEX_POINT('',#1149);
#336=VERTEX_POINT('',#1153);
#337=VERTEX_POINT('',#1154);
#338=VERTEX_POINT('',#1156);
#339=VERTEX_POINT('',#1160);
#340=VERTEX_POINT('',#1161);
#341=VERTEX_POINT('',#1163);
#342=VERTEX_POINT('',#1167);
#343=VERTEX_POINT('',#1168);
#344=VERTEX_POINT('',#1170);
#345=VERTEX_POINT('',#1172);
#346=VERTEX_POINT('',#1179);
#347=VERTEX_POINT('',#1180);
#348=VERTEX_POINT('',#1182);
#349=VERTEX_POINT('',#1184);
#350=VERTEX_POINT('',#1191);
#351=VERTEX_POINT('',#1192);
#352=VERTEX_POINT('',#1194);
#353=VERTEX_POINT('',#1198);
#354=VERTEX_POINT('',#1199);
#355=VERTEX_POINT('',#1207);
#356=VERTEX_POINT('',#1208);
#357=VERTEX_POINT('',#1210);
#358=VERTEX_POINT('',#1214);
#359=VERTEX_POINT('',#1215);
#360=VERTEX_POINT('',#1232);
#361=VERTEX_POINT('',#1233);
#362=VERTEX_POINT('',#1238);
#363=VERTEX_POINT('',#1239);
#364=VERTEX_POINT('',#1244);
#365=VERTEX_POINT('',#1246);
#366=VERTEX_POINT('',#1255);
#367=VERTEX_POINT('',#1257);
#368=VERTEX_POINT('',#1262);
#369=VERTEX_POINT('',#1264);
#370=VERTEX_POINT('',#1268);
#371=VERTEX_POINT('',#1272);
#372=VERTEX_POINT('',#1274);
#373=VERTEX_POINT('',#1276);
#374=VERTEX_POINT('',#1278);
#375=VERTEX_POINT('',#1280);
#376=VERTEX_POINT('',#1288);
#377=VERTEX_POINT('',#1292);
#378=VERTEX_POINT('',#1296);
#379=VERTEX_POINT('',#1297);
#380=VERTEX_POINT('',#1302);
#381=VERTEX_POINT('',#1304);
#382=VERTEX_POINT('',#1306);
#383=VERTEX_POINT('',#1310);
#384=VERTEX_POINT('',#1314);
#385=VERTEX_POINT('',#1319);
#386=VERTEX_POINT('',#1323);
#387=EDGE_CURVE('',#321,#322,#169,.T.);
#388=EDGE_CURVE('',#323,#321,#170,.T.);
#389=EDGE_CURVE('',#324,#323,#171,.T.);
#390=EDGE_CURVE('',#324,#322,#172,.T.);
#391=EDGE_CURVE('',#325,#325,#24,.T.);
#392=EDGE_CURVE('',#325,#326,#173,.T.);
#393=EDGE_CURVE('',#326,#326,#25,.T.);
#394=EDGE_CURVE('',#327,#328,#174,.T.);
#395=EDGE_CURVE('',#329,#327,#175,.T.);
#396=EDGE_CURVE('',#329,#330,#176,.T.);
#397=EDGE_CURVE('',#328,#330,#177,.T.);
#398=EDGE_CURVE('',#322,#327,#26,.T.);
#399=EDGE_CURVE('',#324,#329,#27,.T.);
#400=EDGE_CURVE('',#331,#330,#178,.T.);
#401=EDGE_CURVE('',#331,#332,#179,.F.);
#402=EDGE_CURVE('',#332,#328,#180,.F.);
#403=EDGE_CURVE('',#333,#332,#181,.F.);
#404=EDGE_CURVE('',#334,#333,#182,.F.);
#405=EDGE_CURVE('',#335,#334,#183,.F.);
#406=EDGE_CURVE('',#321,#335,#184,.F.);
#407=EDGE_CURVE('',#336,#337,#28,.F.);
#408=EDGE_CURVE('',#338,#336,#29,.F.);
#409=EDGE_CURVE('',#337,#338,#30,.F.);
#410=EDGE_CURVE('',#339,#340,#31,.F.);
#411=EDGE_CURVE('',#341,#339,#32,.F.);
#412=EDGE_CURVE('',#340,#341,#33,.F.);
#413=EDGE_CURVE('',#342,#343,#34,.T.);
#414=EDGE_CURVE('',#344,#343,#35,.T.);
#415=EDGE_CURVE('',#345,#344,#36,.F.);
#416=EDGE_CURVE('',#342,#345,#37,.T.);
#417=EDGE_CURVE('',#336,#344,#185,.T.);
#418=EDGE_CURVE('',#343,#338,#186,.T.);
#419=EDGE_CURVE('',#346,#347,#38,.F.);
#420=EDGE_CURVE('',#348,#346,#39,.T.);
#421=EDGE_CURVE('',#348,#349,#40,.T.);
#422=EDGE_CURVE('',#347,#349,#41,.T.);
#423=EDGE_CURVE('',#339,#348,#187,.T.);
#424=EDGE_CURVE('',#346,#341,#188,.T.);
#425=EDGE_CURVE('',#350,#351,#42,.F.);
#426=EDGE_CURVE('',#352,#350,#43,.F.);
#427=EDGE_CURVE('',#351,#352,#44,.F.);
#428=EDGE_CURVE('',#353,#354,#45,.T.);
#429=EDGE_CURVE('',#354,#352,#189,.T.);
#430=EDGE_CURVE('',#350,#353,#190,.T.);
#431=EDGE_CURVE('',#345,#351,#191,.T.);
#432=EDGE_CURVE('',#352,#342,#192,.T.);
#433=EDGE_CURVE('',#355,#356,#46,.F.);
#434=EDGE_CURVE('',#357,#355,#47,.F.);
#435=EDGE_CURVE('',#356,#357,#48,.F.);
#436=EDGE_CURVE('',#358,#359,#49,.T.);
#437=EDGE_CURVE('',#359,#357,#193,.T.);
#438=EDGE_CURVE('',#355,#358,#194,.T.);
#439=EDGE_CURVE('',#351,#356,#195,.T.);
#440=EDGE_CURVE('',#357,#350,#196,.T.);
#441=EDGE_CURVE('',#356,#347,#197,.T.);
#442=EDGE_CURVE('',#349,#355,#198,.T.);
#443=EDGE_CURVE('',#344,#346,#199,.T.);
#444=EDGE_CURVE('',#347,#345,#200,.T.);
#445=EDGE_CURVE('',#337,#340,#201,.T.);
#446=EDGE_CURVE('',#341,#336,#202,.T.);
#447=EDGE_CURVE('',#360,#361,#50,.T.);
#448=EDGE_CURVE('',#361,#339,#203,.T.);
#449=EDGE_CURVE('',#340,#360,#204,.T.);
#450=EDGE_CURVE('',#362,#363,#51,.T.);
#451=EDGE_CURVE('',#363,#337,#205,.T.);
#452=EDGE_CURVE('',#338,#362,#206,.T.);
#453=EDGE_CURVE('',#363,#364,#52,.T.);
#454=EDGE_CURVE('',#364,#365,#207,.T.);
#455=EDGE_CURVE('',#365,#360,#53,.T.);
#456=EDGE_CURVE('',#360,#363,#208,.T.);
#457=EDGE_CURVE('',#362,#364,#54,.T.);
#458=EDGE_CURVE('',#365,#361,#55,.T.);
#459=EDGE_CURVE('',#358,#366,#209,.T.);
#460=EDGE_CURVE('',#366,#367,#210,.T.);
#461=EDGE_CURVE('',#367,#354,#211,.T.);
#462=EDGE_CURVE('',#353,#359,#212,.T.);
#463=EDGE_CURVE('',#368,#361,#213,.T.);
#464=EDGE_CURVE('',#368,#369,#214,.T.);
#465=EDGE_CURVE('',#366,#369,#215,.T.);
#466=EDGE_CURVE('',#370,#365,#216,.T.);
#467=EDGE_CURVE('',#370,#368,#56,.T.);
#468=EDGE_CURVE('',#371,#364,#217,.T.);
#469=EDGE_CURVE('',#371,#372,#218,.T.);
#470=EDGE_CURVE('',#372,#373,#219,.T.);
#471=EDGE_CURVE('',#373,#374,#220,.T.);
#472=EDGE_CURVE('',#374,#375,#221,.T.);
#473=EDGE_CURVE('',#375,#370,#222,.T.);
#474=EDGE_CURVE('',#376,#369,#223,.T.);
#475=EDGE_CURVE('',#376,#367,#224,.T.);
#476=EDGE_CURVE('',#377,#376,#225,.T.);
#477=EDGE_CURVE('',#377,#362,#226,.T.);
#478=EDGE_CURVE('',#378,#379,#227,.T.);
#479=EDGE_CURVE('',#375,#378,#228,.T.);
#480=EDGE_CURVE('',#374,#379,#229,.T.);
#481=EDGE_CURVE('',#379,#380,#230,.T.);
#482=EDGE_CURVE('',#373,#381,#231,.T.);
#483=EDGE_CURVE('',#381,#382,#232,.T.);
#484=EDGE_CURVE('',#380,#382,#233,.T.);
#485=EDGE_CURVE('',#383,#372,#234,.T.);
#486=EDGE_CURVE('',#383,#381,#235,.T.);
#487=EDGE_CURVE('',#382,#384,#236,.T.);
#488=EDGE_CURVE('',#384,#383,#237,.T.);
#489=EDGE_CURVE('',#334,#380,#238,.F.);
#490=EDGE_CURVE('',#333,#385,#239,.T.);
#491=EDGE_CURVE('',#378,#385,#240,.T.);
#492=EDGE_CURVE('',#386,#384,#241,.T.);
#493=EDGE_CURVE('',#386,#335,#242,.F.);
#494=EDGE_CURVE('',#385,#331,#243,.T.);
#495=EDGE_CURVE('',#323,#386,#244,.T.);
#496=EDGE_CURVE('',#377,#371,#57,.T.);
#497=ORIENTED_EDGE('',*,*,#387,.F.);
#498=ORIENTED_EDGE('',*,*,#388,.F.);
#499=ORIENTED_EDGE('',*,*,#389,.F.);
#500=ORIENTED_EDGE('',*,*,#390,.T.);
#501=ORIENTED_EDGE('',*,*,#391,.F.);
#502=ORIENTED_EDGE('',*,*,#392,.T.);
#503=ORIENTED_EDGE('',*,*,#393,.T.);
#504=ORIENTED_EDGE('',*,*,#392,.F.);
#505=ORIENTED_EDGE('',*,*,#394,.F.);
#506=ORIENTED_EDGE('',*,*,#395,.F.);
#507=ORIENTED_EDGE('',*,*,#396,.T.);
#508=ORIENTED_EDGE('',*,*,#397,.F.);
#509=ORIENTED_EDGE('',*,*,#398,.F.);
#510=ORIENTED_EDGE('',*,*,#390,.F.);
#511=ORIENTED_EDGE('',*,*,#399,.T.);
#512=ORIENTED_EDGE('',*,*,#395,.T.);
#513=ORIENTED_EDGE('',*,*,#397,.T.);
#514=ORIENTED_EDGE('',*,*,#400,.F.);
#515=ORIENTED_EDGE('',*,*,#401,.T.);
#516=ORIENTED_EDGE('',*,*,#402,.T.);
#517=ORIENTED_EDGE('',*,*,#387,.T.);
#518=ORIENTED_EDGE('',*,*,#398,.T.);
#519=ORIENTED_EDGE('',*,*,#394,.T.);
#520=ORIENTED_EDGE('',*,*,#402,.F.);
#521=ORIENTED_EDGE('',*,*,#403,.F.);
#522=ORIENTED_EDGE('',*,*,#404,.F.);
#523=ORIENTED_EDGE('',*,*,#405,.F.);
#524=ORIENTED_EDGE('',*,*,#406,.F.);
#525=ORIENTED_EDGE('',*,*,#407,.F.);
#526=ORIENTED_EDGE('',*,*,#408,.F.);
#527=ORIENTED_EDGE('',*,*,#409,.F.);
#528=ORIENTED_EDGE('',*,*,#410,.F.);
#529=ORIENTED_EDGE('',*,*,#411,.F.);
#530=ORIENTED_EDGE('',*,*,#412,.F.);
#531=ORIENTED_EDGE('',*,*,#413,.T.);
#532=ORIENTED_EDGE('',*,*,#414,.F.);
#533=ORIENTED_EDGE('',*,*,#415,.F.);
#534=ORIENTED_EDGE('',*,*,#416,.F.);
#535=ORIENTED_EDGE('',*,*,#408,.T.);
#536=ORIENTED_EDGE('',*,*,#417,.T.);
#537=ORIENTED_EDGE('',*,*,#414,.T.);
#538=ORIENTED_EDGE('',*,*,#418,.T.);
#539=ORIENTED_EDGE('',*,*,#419,.F.);
#540=ORIENTED_EDGE('',*,*,#420,.F.);
#541=ORIENTED_EDGE('',*,*,#421,.T.);
#542=ORIENTED_EDGE('',*,*,#422,.F.);
#543=ORIENTED_EDGE('',*,*,#411,.T.);
#544=ORIENTED_EDGE('',*,*,#423,.T.);
#545=ORIENTED_EDGE('',*,*,#420,.T.);
#546=ORIENTED_EDGE('',*,*,#424,.T.);
#547=ORIENTED_EDGE('',*,*,#425,.F.);
#548=ORIENTED_EDGE('',*,*,#426,.F.);
#549=ORIENTED_EDGE('',*,*,#427,.F.);
#550=ORIENTED_EDGE('',*,*,#428,.T.);
#551=ORIENTED_EDGE('',*,*,#429,.T.);
#552=ORIENTED_EDGE('',*,*,#426,.T.);
#553=ORIENTED_EDGE('',*,*,#430,.T.);
#554=ORIENTED_EDGE('',*,*,#416,.T.);
#555=ORIENTED_EDGE('',*,*,#431,.T.);
#556=ORIENTED_EDGE('',*,*,#427,.T.);
#557=ORIENTED_EDGE('',*,*,#432,.T.);
#558=ORIENTED_EDGE('',*,*,#433,.F.);
#559=ORIENTED_EDGE('',*,*,#434,.F.);
#560=ORIENTED_EDGE('',*,*,#435,.F.);
#561=ORIENTED_EDGE('',*,*,#436,.T.);
#562=ORIENTED_EDGE('',*,*,#437,.T.);
#563=ORIENTED_EDGE('',*,*,#434,.T.);
#564=ORIENTED_EDGE('',*,*,#438,.T.);
#565=ORIENTED_EDGE('',*,*,#425,.T.);
#566=ORIENTED_EDGE('',*,*,#439,.T.);
#567=ORIENTED_EDGE('',*,*,#435,.T.);
#568=ORIENTED_EDGE('',*,*,#440,.T.);
#569=ORIENTED_EDGE('',*,*,#433,.T.);
#570=ORIENTED_EDGE('',*,*,#441,.T.);
#571=ORIENTED_EDGE('',*,*,#422,.T.);
#572=ORIENTED_EDGE('',*,*,#442,.T.);
#573=ORIENTED_EDGE('',*,*,#415,.T.);
#574=ORIENTED_EDGE('',*,*,#443,.T.);
#575=ORIENTED_EDGE('',*,*,#419,.T.);
#576=ORIENTED_EDGE('',*,*,#444,.T.);
#577=ORIENTED_EDGE('',*,*,#407,.T.);
#578=ORIENTED_EDGE('',*,*,#445,.T.);
#579=ORIENTED_EDGE('',*,*,#412,.T.);
#580=ORIENTED_EDGE('',*,*,#446,.T.);
#581=ORIENTED_EDGE('',*,*,#447,.T.);
#582=ORIENTED_EDGE('',*,*,#448,.T.);
#583=ORIENTED_EDGE('',*,*,#410,.T.);
#584=ORIENTED_EDGE('',*,*,#449,.T.);
#585=ORIENTED_EDGE('',*,*,#450,.T.);
#586=ORIENTED_EDGE('',*,*,#451,.T.);
#587=ORIENTED_EDGE('',*,*,#409,.T.);
#588=ORIENTED_EDGE('',*,*,#452,.T.);
#589=ORIENTED_EDGE('',*,*,#453,.T.);
#590=ORIENTED_EDGE('',*,*,#454,.T.);
#591=ORIENTED_EDGE('',*,*,#455,.T.);
#592=ORIENTED_EDGE('',*,*,#456,.T.);
#593=ORIENTED_EDGE('',*,*,#453,.F.);
#594=ORIENTED_EDGE('',*,*,#450,.F.);
#595=ORIENTED_EDGE('',*,*,#457,.T.);
#596=ORIENTED_EDGE('',*,*,#447,.F.);
#597=ORIENTED_EDGE('',*,*,#455,.F.);
#598=ORIENTED_EDGE('',*,*,#458,.T.);
#599=ORIENTED_EDGE('',*,*,#436,.F.);
#600=ORIENTED_EDGE('',*,*,#459,.T.);
#601=ORIENTED_EDGE('',*,*,#460,.T.);
#602=ORIENTED_EDGE('',*,*,#461,.T.);
#603=ORIENTED_EDGE('',*,*,#428,.F.);
#604=ORIENTED_EDGE('',*,*,#462,.T.);
#605=ORIENTED_EDGE('',*,*,#438,.F.);
#606=ORIENTED_EDGE('',*,*,#442,.F.);
#607=ORIENTED_EDGE('',*,*,#421,.F.);
#608=ORIENTED_EDGE('',*,*,#423,.F.);
#609=ORIENTED_EDGE('',*,*,#448,.F.);
#610=ORIENTED_EDGE('',*,*,#463,.F.);
#611=ORIENTED_EDGE('',*,*,#464,.T.);
#612=ORIENTED_EDGE('',*,*,#465,.F.);
#613=ORIENTED_EDGE('',*,*,#459,.F.);
#614=ORIENTED_EDGE('',*,*,#458,.F.);
#615=ORIENTED_EDGE('',*,*,#466,.F.);
#616=ORIENTED_EDGE('',*,*,#467,.T.);
#617=ORIENTED_EDGE('',*,*,#463,.T.);
#618=ORIENTED_EDGE('',*,*,#454,.F.);
#619=ORIENTED_EDGE('',*,*,#468,.F.);
#620=ORIENTED_EDGE('',*,*,#469,.T.);
#621=ORIENTED_EDGE('',*,*,#470,.T.);
#622=ORIENTED_EDGE('',*,*,#471,.T.);
#623=ORIENTED_EDGE('',*,*,#472,.T.);
#624=ORIENTED_EDGE('',*,*,#473,.T.);
#625=ORIENTED_EDGE('',*,*,#466,.T.);
#626=ORIENTED_EDGE('',*,*,#424,.F.);
#627=ORIENTED_EDGE('',*,*,#443,.F.);
#628=ORIENTED_EDGE('',*,*,#417,.F.);
#629=ORIENTED_EDGE('',*,*,#446,.F.);
#630=ORIENTED_EDGE('',*,*,#431,.F.);
#631=ORIENTED_EDGE('',*,*,#444,.F.);
#632=ORIENTED_EDGE('',*,*,#441,.F.);
#633=ORIENTED_EDGE('',*,*,#439,.F.);
#634=ORIENTED_EDGE('',*,*,#445,.F.);
#635=ORIENTED_EDGE('',*,*,#451,.F.);
#636=ORIENTED_EDGE('',*,*,#456,.F.);
#637=ORIENTED_EDGE('',*,*,#449,.F.);
#638=ORIENTED_EDGE('',*,*,#437,.F.);
#639=ORIENTED_EDGE('',*,*,#462,.F.);
#640=ORIENTED_EDGE('',*,*,#430,.F.);
#641=ORIENTED_EDGE('',*,*,#440,.F.);
#642=ORIENTED_EDGE('',*,*,#474,.F.);
#643=ORIENTED_EDGE('',*,*,#475,.T.);
#644=ORIENTED_EDGE('',*,*,#460,.F.);
#645=ORIENTED_EDGE('',*,*,#465,.T.);
#646=ORIENTED_EDGE('',*,*,#429,.F.);
#647=ORIENTED_EDGE('',*,*,#461,.F.);
#648=ORIENTED_EDGE('',*,*,#475,.F.);
#649=ORIENTED_EDGE('',*,*,#476,.F.);
#650=ORIENTED_EDGE('',*,*,#477,.T.);
#651=ORIENTED_EDGE('',*,*,#452,.F.);
#652=ORIENTED_EDGE('',*,*,#418,.F.);
#653=ORIENTED_EDGE('',*,*,#413,.F.);
#654=ORIENTED_EDGE('',*,*,#432,.F.);
#655=ORIENTED_EDGE('',*,*,#478,.F.);
#656=ORIENTED_EDGE('',*,*,#479,.F.);
#657=ORIENTED_EDGE('',*,*,#472,.F.);
#658=ORIENTED_EDGE('',*,*,#480,.T.);
#659=ORIENTED_EDGE('',*,*,#481,.F.);
#660=ORIENTED_EDGE('',*,*,#480,.F.);
#661=ORIENTED_EDGE('',*,*,#471,.F.);
#662=ORIENTED_EDGE('',*,*,#482,.T.);
#663=ORIENTED_EDGE('',*,*,#483,.T.);
#664=ORIENTED_EDGE('',*,*,#484,.F.);
#665=ORIENTED_EDGE('',*,*,#470,.F.);
#666=ORIENTED_EDGE('',*,*,#485,.F.);
#667=ORIENTED_EDGE('',*,*,#486,.T.);
#668=ORIENTED_EDGE('',*,*,#482,.F.);
#669=ORIENTED_EDGE('',*,*,#487,.F.);
#670=ORIENTED_EDGE('',*,*,#483,.F.);
#671=ORIENTED_EDGE('',*,*,#486,.F.);
#672=ORIENTED_EDGE('',*,*,#488,.F.);
#673=ORIENTED_EDGE('',*,*,#478,.T.);
#674=ORIENTED_EDGE('',*,*,#481,.T.);
#675=ORIENTED_EDGE('',*,*,#489,.F.);
#676=ORIENTED_EDGE('',*,*,#404,.T.);
#677=ORIENTED_EDGE('',*,*,#490,.T.);
#678=ORIENTED_EDGE('',*,*,#491,.F.);
#679=ORIENTED_EDGE('',*,*,#487,.T.);
#680=ORIENTED_EDGE('',*,*,#492,.F.);
#681=ORIENTED_EDGE('',*,*,#493,.T.);
#682=ORIENTED_EDGE('',*,*,#405,.T.);
#683=ORIENTED_EDGE('',*,*,#489,.T.);
#684=ORIENTED_EDGE('',*,*,#484,.T.);
#685=ORIENTED_EDGE('',*,*,#490,.F.);
#686=ORIENTED_EDGE('',*,*,#403,.T.);
#687=ORIENTED_EDGE('',*,*,#401,.F.);
#688=ORIENTED_EDGE('',*,*,#494,.F.);
#689=ORIENTED_EDGE('',*,*,#388,.T.);
#690=ORIENTED_EDGE('',*,*,#406,.T.);
#691=ORIENTED_EDGE('',*,*,#493,.F.);
#692=ORIENTED_EDGE('',*,*,#495,.F.);
#693=ORIENTED_EDGE('',*,*,#391,.T.);
#694=ORIENTED_EDGE('',*,*,#457,.F.);
#695=ORIENTED_EDGE('',*,*,#477,.F.);
#696=ORIENTED_EDGE('',*,*,#496,.T.);
#697=ORIENTED_EDGE('',*,*,#468,.T.);
#698=ORIENTED_EDGE('',*,*,#495,.T.);
#699=ORIENTED_EDGE('',*,*,#492,.T.);
#700=ORIENTED_EDGE('',*,*,#488,.T.);
#701=ORIENTED_EDGE('',*,*,#485,.T.);
#702=ORIENTED_EDGE('',*,*,#469,.F.);
#703=ORIENTED_EDGE('',*,*,#496,.F.);
#704=ORIENTED_EDGE('',*,*,#476,.T.);
#705=ORIENTED_EDGE('',*,*,#474,.T.);
#706=ORIENTED_EDGE('',*,*,#464,.F.);
#707=ORIENTED_EDGE('',*,*,#467,.F.);
#708=ORIENTED_EDGE('',*,*,#473,.F.);
#709=ORIENTED_EDGE('',*,*,#479,.T.);
#710=ORIENTED_EDGE('',*,*,#491,.T.);
#711=ORIENTED_EDGE('',*,*,#494,.T.);
#712=ORIENTED_EDGE('',*,*,#400,.T.);
#713=ORIENTED_EDGE('',*,*,#396,.F.);
#714=ORIENTED_EDGE('',*,*,#399,.F.);
#715=ORIENTED_EDGE('',*,*,#389,.T.);
#716=ORIENTED_EDGE('',*,*,#393,.F.);
#717=PLANE('',#789);
#718=PLANE('',#793);
#719=PLANE('',#797);
#720=PLANE('',#798);
#721=PLANE('',#847);
#722=PLANE('',#848);
#723=PLANE('',#851);
#724=PLANE('',#852);
#725=PLANE('',#853);
#726=PLANE('',#854);
#727=PLANE('',#855);
#728=PLANE('',#856);
#729=PLANE('',#857);
#730=PLANE('',#858);
#731=PLANE('',#859);
#732=PLANE('',#860);
#733=PLANE('',#861);
#734=PLANE('',#862);
#735=PLANE('',#863);
#736=PLANE('',#864);
#737=PLANE('',#865);
#738=PLANE('',#866);
#739=PLANE('',#869);
#740=ADVANCED_FACE('',(#74),#717,.T.);
#741=ADVANCED_FACE('',(#75),#58,.F.);
#742=ADVANCED_FACE('',(#76),#718,.T.);
#743=ADVANCED_FACE('',(#77),#59,.T.);
#744=ADVANCED_FACE('',(#78),#719,.F.);
#745=ADVANCED_FACE('',(#79),#720,.F.);
#746=ADVANCED_FACE('',(#80),#18,.T.);
#747=ADVANCED_FACE('',(#81),#19,.T.);
#748=ADVANCED_FACE('',(#82),#16,.T.);
#749=ADVANCED_FACE('',(#83),#60,.T.);
#750=ADVANCED_FACE('',(#84),#17,.T.);
#751=ADVANCED_FACE('',(#85),#61,.T.);
#752=ADVANCED_FACE('',(#86),#20,.T.);
#753=ADVANCED_FACE('',(#87),#62,.T.);
#754=ADVANCED_FACE('',(#88),#63,.T.);
#755=ADVANCED_FACE('',(#89),#21,.T.);
#756=ADVANCED_FACE('',(#90),#64,.T.);
#757=ADVANCED_FACE('',(#91),#65,.T.);
#758=ADVANCED_FACE('',(#92),#66,.T.);
#759=ADVANCED_FACE('',(#93),#67,.F.);
#760=ADVANCED_FACE('',(#94),#68,.T.);
#761=ADVANCED_FACE('',(#95),#69,.T.);
#762=ADVANCED_FACE('',(#96),#70,.T.);
#763=ADVANCED_FACE('',(#97),#71,.T.);
#764=ADVANCED_FACE('',(#98),#22,.T.);
#765=ADVANCED_FACE('',(#99),#23,.T.);
#766=ADVANCED_FACE('',(#100),#721,.T.);
#767=ADVANCED_FACE('',(#101),#722,.T.);
#768=ADVANCED_FACE('',(#102),#72,.T.);
#769=ADVANCED_FACE('',(#103),#723,.T.);
#770=ADVANCED_FACE('',(#104),#724,.T.);
#771=ADVANCED_FACE('',(#105),#725,.T.);
#772=ADVANCED_FACE('',(#106),#726,.T.);
#773=ADVANCED_FACE('',(#107),#727,.T.);
#774=ADVANCED_FACE('',(#108),#728,.T.);
#775=ADVANCED_FACE('',(#109),#729,.T.);
#776=ADVANCED_FACE('',(#110),#730,.F.);
#777=ADVANCED_FACE('',(#111),#731,.F.);
#778=ADVANCED_FACE('',(#112),#732,.F.);
#779=ADVANCED_FACE('',(#113),#733,.F.);
#780=ADVANCED_FACE('',(#114),#734,.F.);
#781=ADVANCED_FACE('',(#115),#735,.F.);
#782=ADVANCED_FACE('',(#116),#736,.F.);
#783=ADVANCED_FACE('',(#117),#737,.F.);
#784=ADVANCED_FACE('',(#118),#738,.F.);
#785=ADVANCED_FACE('',(#119),#73,.T.);
#786=ADVANCED_FACE('',(#120,#15),#739,.F.);
#787=CLOSED_SHELL('',(#740,#741,#742,#743,#744,#745,#746,#747,#748,#749,
#750,#751,#752,#753,#754,#755,#756,#757,#758,#759,#760,#761,#762,#763,#764,
#765,#766,#767,#768,#769,#770,#771,#772,#773,#774,#775,#776,#777,#778,#779,
#780,#781,#782,#783,#784,#785,#786));
#788=AXIS2_PLACEMENT_3D('',#1110,#870,#871);
#789=AXIS2_PLACEMENT_3D('',#1111,#872,#873);
#790=AXIS2_PLACEMENT_3D('',#1120,#878,#879);
#791=AXIS2_PLACEMENT_3D('',#1122,#880,#881);
#792=AXIS2_PLACEMENT_3D('',#1125,#883,#884);
#793=AXIS2_PLACEMENT_3D('',#1126,#885,#886);
#794=AXIS2_PLACEMENT_3D('',#1135,#891,#892);
#795=AXIS2_PLACEMENT_3D('',#1136,#893,#894);
#796=AXIS2_PLACEMENT_3D('',#1137,#895,#896);
#797=AXIS2_PLACEMENT_3D('',#1138,#897,#898);
#798=AXIS2_PLACEMENT_3D('',#1144,#902,#903);
#799=AXIS2_PLACEMENT_3D('',#1152,#908,#909);
#800=AXIS2_PLACEMENT_3D('',#1155,#910,#911);
#801=AXIS2_PLACEMENT_3D('',#1157,#912,#913);
#802=AXIS2_PLACEMENT_3D('',#1158,#914,#915);
#803=AXIS2_PLACEMENT_3D('',#1159,#916,#917);
#804=AXIS2_PLACEMENT_3D('',#1162,#918,#919);
#805=AXIS2_PLACEMENT_3D('',#1164,#920,#921);
#806=AXIS2_PLACEMENT_3D('',#1165,#922,#923);
#807=AXIS2_PLACEMENT_3D('',#1166,#924,#925);
#808=AXIS2_PLACEMENT_3D('',#1169,#926,#927);
#809=AXIS2_PLACEMENT_3D('',#1171,#928,#929);
#810=AXIS2_PLACEMENT_3D('',#1173,#930,#931);
#811=AXIS2_PLACEMENT_3D('',#1174,#932,#933);
#812=AXIS2_PLACEMENT_3D('',#1175,#934,#935);
#813=AXIS2_PLACEMENT_3D('',#1178,#938,#939);
#814=AXIS2_PLACEMENT_3D('',#1181,#940,#941);
#815=AXIS2_PLACEMENT_3D('',#1183,#942,#943);
#816=AXIS2_PLACEMENT_3D('',#1185,#944,#945);
#817=AXIS2_PLACEMENT_3D('',#1186,#946,#947);
#818=AXIS2_PLACEMENT_3D('',#1187,#948,#949);
#819=AXIS2_PLACEMENT_3D('',#1190,#952,#953);
#820=AXIS2_PLACEMENT_3D('',#1193,#954,#955);
#821=AXIS2_PLACEMENT_3D('',#1195,#956,#957);
#822=AXIS2_PLACEMENT_3D('',#1196,#958,#959);
#823=AXIS2_PLACEMENT_3D('',#1197,#960,#961);
#824=AXIS2_PLACEMENT_3D('',#1200,#962,#963);
#825=AXIS2_PLACEMENT_3D('',#1203,#966,#967);
#826=AXIS2_PLACEMENT_3D('',#1206,#970,#971);
#827=AXIS2_PLACEMENT_3D('',#1209,#972,#973);
#828=AXIS2_PLACEMENT_3D('',#1211,#974,#975);
#829=AXIS2_PLACEMENT_3D('',#1212,#976,#977);
#830=AXIS2_PLACEMENT_3D('',#1213,#978,#979);
#831=AXIS2_PLACEMENT_3D('',#1216,#980,#981);
#832=AXIS2_PLACEMENT_3D('',#1219,#984,#985);
#833=AXIS2_PLACEMENT_3D('',#1222,#988,#989);
#834=AXIS2_PLACEMENT_3D('',#1225,#992,#993);
#835=AXIS2_PLACEMENT_3D('',#1228,#996,#997);
#836=AXIS2_PLACEMENT_3D('',#1231,#1000,#1001);
#837=AXIS2_PLACEMENT_3D('',#1234,#1002,#1003);
#838=AXIS2_PLACEMENT_3D('',#1237,#1006,#1007);
#839=AXIS2_PLACEMENT_3D('',#1240,#1008,#1009);
#840=AXIS2_PLACEMENT_3D('',#1243,#1012,#1013);
#841=AXIS2_PLACEMENT_3D('',#1245,#1014,#1015);
#842=AXIS2_PLACEMENT_3D('',#1248,#1017,#1018);
#843=AXIS2_PLACEMENT_3D('',#1250,#1020,#1021);
#844=AXIS2_PLACEMENT_3D('',#1251,#1022,#1023);
#845=AXIS2_PLACEMENT_3D('',#1252,#1024,#1025);
#846=AXIS2_PLACEMENT_3D('',#1253,#1026,#1027);
#847=AXIS2_PLACEMENT_3D('',#1254,#1028,#1029);
#848=AXIS2_PLACEMENT_3D('',#1261,#1034,#1035);
#849=AXIS2_PLACEMENT_3D('',#1267,#1039,#1040);
#850=AXIS2_PLACEMENT_3D('',#1270,#1042,#1043);
#851=AXIS2_PLACEMENT_3D('',#1271,#1044,#1045);
#852=AXIS2_PLACEMENT_3D('',#1283,#1052,#1053);
#853=AXIS2_PLACEMENT_3D('',#1284,#1054,#1055);
#854=AXIS2_PLACEMENT_3D('',#1285,#1056,#1057);
#855=AXIS2_PLACEMENT_3D('',#1286,#1058,#1059);
#856=AXIS2_PLACEMENT_3D('',#1287,#1060,#1061);
#857=AXIS2_PLACEMENT_3D('',#1291,#1064,#1065);
#858=AXIS2_PLACEMENT_3D('',#1295,#1068,#1069);
#859=AXIS2_PLACEMENT_3D('',#1301,#1073,#1074);
#860=AXIS2_PLACEMENT_3D('',#1309,#1079,#1080);
#861=AXIS2_PLACEMENT_3D('',#1313,#1083,#1084);
#862=AXIS2_PLACEMENT_3D('',#1317,#1087,#1088);
#863=AXIS2_PLACEMENT_3D('',#1322,#1092,#1093);
#864=AXIS2_PLACEMENT_3D('',#1326,#1096,#1097);
#865=AXIS2_PLACEMENT_3D('',#1328,#1099,#1100);
#866=AXIS2_PLACEMENT_3D('',#1330,#1102,#1103);
#867=AXIS2_PLACEMENT_3D('',#1331,#1104,#1105);
#868=AXIS2_PLACEMENT_3D('',#1332,#1106,#1107);
#869=AXIS2_PLACEMENT_3D('',#1333,#1108,#1109);
#870=DIRECTION('axis',(0.,0.,1.));
#871=DIRECTION('refdir',(1.,0.,0.));
#872=DIRECTION('center_axis',(-0.00863928028187189,-0.999962680721741,0.));
#873=DIRECTION('ref_axis',(0.999962680721741,-0.00863928028187189,0.));
#874=DIRECTION('',(0.999962680721741,-0.00863928028187189,0.));
#875=DIRECTION('',(0.,0.,1.));
#876=DIRECTION('',(-0.999962680721741,0.00863928028187189,0.));
#877=DIRECTION('',(0.,0.,1.));
#878=DIRECTION('center_axis',(0.,0.,1.));
#879=DIRECTION('ref_axis',(-1.,0.,0.));
#880=DIRECTION('center_axis',(0.,0.,-1.));
#881=DIRECTION('ref_axis',(-1.,0.,0.));
#882=DIRECTION('',(0.,0.,-1.));
#883=DIRECTION('center_axis',(0.,0.,-1.));
#884=DIRECTION('ref_axis',(-1.,0.,0.));
#885=DIRECTION('center_axis',(-0.00732129265203331,0.999973198977804,0.));
#886=DIRECTION('ref_axis',(-0.999973198977804,-0.00732129265203331,0.));
#887=DIRECTION('',(-0.999973198977804,-0.00732129265203331,0.));
#888=DIRECTION('',(0.,0.,1.));
#889=DIRECTION('',(-0.999973198977804,-0.00732129265203331,0.));
#890=DIRECTION('',(0.,0.,-1.));
#891=DIRECTION('center_axis',(0.,0.,1.));
#892=DIRECTION('ref_axis',(0.999999782849723,-0.000659014799923748,0.));
#893=DIRECTION('center_axis',(0.,0.,1.));
#894=DIRECTION('ref_axis',(-0.00863928028187404,-0.999962680721741,0.));
#895=DIRECTION('center_axis',(0.,0.,1.));
#896=DIRECTION('ref_axis',(-0.00863928028187404,-0.999962680721741,0.));
#897=DIRECTION('center_axis',(-1.,0.,0.));
#898=DIRECTION('ref_axis',(0.,-1.,0.));
#899=DIRECTION('',(0.,-1.,0.));
#900=DIRECTION('',(0.,0.,-1.));
#901=DIRECTION('',(0.,1.,0.));
#902=DIRECTION('center_axis',(0.,0.,1.));
#903=DIRECTION('ref_axis',(-1.,0.,0.));
#904=DIRECTION('',(1.,0.,0.));
#905=DIRECTION('',(0.,-1.,0.));
#906=DIRECTION('',(-1.,0.,0.));
#907=DIRECTION('',(0.,1.,0.));
#908=DIRECTION('center_axis',(-0.408248290463863,-0.408248290463849,-0.816496580927733));
#909=DIRECTION('ref_axis',(-0.577350269189637,-0.577350269189622,0.577350269189619));
#910=DIRECTION('center_axis',(0.,-1.,0.));
#911=DIRECTION('ref_axis',(-1.,0.,0.));
#912=DIRECTION('center_axis',(0.,0.,1.));
#913=DIRECTION('ref_axis',(0.,-1.,0.));
#914=DIRECTION('center_axis',(-1.,-1.77635683940026E-14,0.));
#915=DIRECTION('ref_axis',(0.,0.,1.));
#916=DIRECTION('center_axis',(-0.408248290463863,-0.816496580927725,0.408248290463865));
#917=DIRECTION('ref_axis',(-0.577350269189625,0.577350269189625,0.577350269189628));
#918=DIRECTION('center_axis',(-1.,0.,0.));
#919=DIRECTION('ref_axis',(0.,1.,0.));
#920=DIRECTION('center_axis',(0.,0.,1.));
#921=DIRECTION('ref_axis',(-1.,0.,0.));
#922=DIRECTION('center_axis',(0.,1.,0.));
#923=DIRECTION('ref_axis',(0.,0.,1.));
#924=DIRECTION('center_axis',(0.,-1.,0.));
#925=DIRECTION('ref_axis',(0.,0.,-1.));
#926=DIRECTION('center_axis',(0.,-1.,0.));
#927=DIRECTION('ref_axis',(0.707106781186553,0.,-0.707106781186542));
#928=DIRECTION('center_axis',(0.,0.,1.));
#929=DIRECTION('ref_axis',(-1.,0.,0.));
#930=DIRECTION('center_axis',(0.,1.,0.));
#931=DIRECTION('ref_axis',(0.,0.,-1.));
#932=DIRECTION('center_axis',(-1.,0.,0.));
#933=DIRECTION('ref_axis',(0.,-1.,0.));
#934=DIRECTION('center_axis',(0.,0.,1.));
#935=DIRECTION('ref_axis',(-0.707106781186548,-0.707106781186548,0.));
#936=DIRECTION('',(0.,0.,-1.));
#937=DIRECTION('',(0.,0.,1.));
#938=DIRECTION('center_axis',(0.,-1.,0.));
#939=DIRECTION('ref_axis',(0.,0.,-1.));
#940=DIRECTION('center_axis',(0.,-1.,0.));
#941=DIRECTION('ref_axis',(1.,0.,0.));
#942=DIRECTION('center_axis',(0.,0.,1.));
#943=DIRECTION('ref_axis',(0.,1.,0.));
#944=DIRECTION('center_axis',(0.,1.,0.));
#945=DIRECTION('ref_axis',(0.707106781186553,0.,-0.707106781186542));
#946=DIRECTION('center_axis',(-1.,0.,0.));
#947=DIRECTION('ref_axis',(0.,0.,1.));
#948=DIRECTION('center_axis',(0.,0.,1.));
#949=DIRECTION('ref_axis',(-0.707106781186541,0.707106781186554,0.));
#950=DIRECTION('',(0.,0.,-1.));
#951=DIRECTION('',(0.,0.,1.));
#952=DIRECTION('center_axis',(-0.408248290463863,-0.408248290463849,-0.816496580927733));
#953=DIRECTION('ref_axis',(-0.577350269189637,-0.577350269189623,0.577350269189618));
#954=DIRECTION('center_axis',(0.,-1.,0.));
#955=DIRECTION('ref_axis',(-1.,0.,0.));
#956=DIRECTION('center_axis',(0.,0.,1.));
#957=DIRECTION('ref_axis',(0.,-1.,0.));
#958=DIRECTION('center_axis',(-1.,-1.77635683940026E-14,0.));
#959=DIRECTION('ref_axis',(0.,0.,1.));
#960=DIRECTION('center_axis',(0.,0.,1.));
#961=DIRECTION('ref_axis',(-0.707106781186548,-0.707106781186548,0.));
#962=DIRECTION('center_axis',(0.,0.,1.));
#963=DIRECTION('ref_axis',(-0.707106781186548,-0.707106781186548,0.));
#964=DIRECTION('',(0.,0.,1.));
#965=DIRECTION('',(0.,0.,-1.));
#966=DIRECTION('center_axis',(1.,0.,0.));
#967=DIRECTION('ref_axis',(0.,-0.707106781186553,0.707106781186542));
#968=DIRECTION('',(-1.,0.,0.));
#969=DIRECTION('',(1.,0.,0.));
#970=DIRECTION('center_axis',(-0.408248290463863,-0.816496580927725,0.408248290463865));
#971=DIRECTION('ref_axis',(-0.577350269189625,0.577350269189625,0.577350269189628));
#972=DIRECTION('center_axis',(-1.,0.,0.));
#973=DIRECTION('ref_axis',(0.,1.,0.));
#974=DIRECTION('center_axis',(0.,0.,1.));
#975=DIRECTION('ref_axis',(-1.,0.,0.));
#976=DIRECTION('center_axis',(0.,1.,0.));
#977=DIRECTION('ref_axis',(0.,0.,1.));
#978=DIRECTION('center_axis',(0.,0.,1.));
#979=DIRECTION('ref_axis',(-0.707106781186541,0.707106781186554,0.));
#980=DIRECTION('center_axis',(0.,0.,1.));
#981=DIRECTION('ref_axis',(-0.707106781186541,0.707106781186554,0.));
#982=DIRECTION('',(0.,0.,1.));
#983=DIRECTION('',(0.,0.,-1.));
#984=DIRECTION('center_axis',(0.,-1.,0.));
#985=DIRECTION('ref_axis',(-0.70710678118654,0.,0.707106781186555));
#986=DIRECTION('',(0.,1.,0.));
#987=DIRECTION('',(0.,-1.,0.));
#988=DIRECTION('center_axis',(-1.,0.,0.));
#989=DIRECTION('ref_axis',(0.,0.707106781186546,0.707106781186549));
#990=DIRECTION('',(1.,0.,0.));
#991=DIRECTION('',(-1.,0.,0.));
#992=DIRECTION('center_axis',(0.,-1.,0.));
#993=DIRECTION('ref_axis',(0.707106781186553,0.,-0.707106781186542));
#994=DIRECTION('',(0.,1.,0.));
#995=DIRECTION('',(0.,-1.,0.));
#996=DIRECTION('center_axis',(0.,-1.,0.));
#997=DIRECTION('ref_axis',(-0.70710678118654,0.,0.707106781186555));
#998=DIRECTION('',(0.,1.,0.));
#999=DIRECTION('',(0.,-1.,0.));
#1000=DIRECTION('center_axis',(-1.,0.,0.));
#1001=DIRECTION('ref_axis',(0.,0.707106781186546,0.707106781186549));
#1002=DIRECTION('center_axis',(-1.,0.,0.));
#1003=DIRECTION('ref_axis',(0.,0.,1.));
#1004=DIRECTION('',(-1.,0.,0.));
#1005=DIRECTION('',(1.,0.,0.));
#1006=DIRECTION('center_axis',(1.,0.,0.));
#1007=DIRECTION('ref_axis',(0.,-0.707106781186552,0.707106781186543));
#1008=DIRECTION('center_axis',(-1.,0.,0.));
#1009=DIRECTION('ref_axis',(0.,-1.,0.));
#1010=DIRECTION('',(-1.,0.,0.));
#1011=DIRECTION('',(1.,0.,0.));
#1012=DIRECTION('center_axis',(0.,1.,0.));
#1013=DIRECTION('ref_axis',(0.707106781186552,0.,0.707106781186543));
#1014=DIRECTION('center_axis',(0.,1.,0.));
#1015=DIRECTION('ref_axis',(0.,0.,1.));
#1016=DIRECTION('',(0.,1.,0.));
#1017=DIRECTION('center_axis',(0.,-1.,0.));
#1018=DIRECTION('ref_axis',(1.,0.,0.));
#1019=DIRECTION('',(0.,-1.,0.));
#1020=DIRECTION('center_axis',(-0.408247528023909,-0.816496885880914,-0.408248442996586));
#1021=DIRECTION('ref_axis',(0.577349837839623,-0.577349837920454,0.577351131807834));
#1022=DIRECTION('center_axis',(0.,0.,1.));
#1023=DIRECTION('ref_axis',(-7.47070572800911E-7,-0.999999999999721,0.));
#1024=DIRECTION('center_axis',(0.40824752797869,-0.816496885925066,0.408248442953502));
#1025=DIRECTION('ref_axis',(0.577349837869347,0.577349837858007,0.577351131840557));
#1026=DIRECTION('center_axis',(0.,0.,1.));
#1027=DIRECTION('ref_axis',(0.999999999999721,-7.47080555990035E-7,0.));
#1028=DIRECTION('center_axis',(0.,0.,-1.));
#1029=DIRECTION('ref_axis',(-1.,0.,0.));
#1030=DIRECTION('',(1.,0.,0.));
#1031=DIRECTION('',(0.,-1.,0.));
#1032=DIRECTION('',(-1.,0.,0.));
#1033=DIRECTION('',(0.,1.,0.));
#1034=DIRECTION('center_axis',(0.,1.,0.));
#1035=DIRECTION('ref_axis',(-1.,0.,0.));
#1036=DIRECTION('',(0.,0.,1.));
#1037=DIRECTION('',(-1.,0.,0.));
#1038=DIRECTION('',(0.,0.,1.));
#1039=DIRECTION('center_axis',(0.,0.,1.));
#1040=DIRECTION('ref_axis',(0.999999999999721,-7.47080555990035E-7,0.));
#1041=DIRECTION('',(0.,0.,1.));
#1042=DIRECTION('center_axis',(0.,0.,1.));
#1043=DIRECTION('ref_axis',(0.999999999999721,-7.47080555990035E-7,0.));
#1044=DIRECTION('center_axis',(1.,0.,0.));
#1045=DIRECTION('ref_axis',(0.,1.,0.));
#1046=DIRECTION('',(0.,0.,1.));
#1047=DIRECTION('',(0.,1.,0.));
#1048=DIRECTION('',(0.,0.,1.));
#1049=DIRECTION('',(0.,1.,0.));
#1050=DIRECTION('',(0.,0.,-1.));
#1051=DIRECTION('',(0.,1.,0.));
#1052=DIRECTION('center_axis',(-1.,0.,0.));
#1053=DIRECTION('ref_axis',(0.,-1.,0.));
#1054=DIRECTION('center_axis',(0.,0.,1.));
#1055=DIRECTION('ref_axis',(-1.,0.,0.));
#1056=DIRECTION('center_axis',(0.,0.,1.));
#1057=DIRECTION('ref_axis',(-1.,0.,0.));
#1058=DIRECTION('center_axis',(-1.,0.,0.));
#1059=DIRECTION('ref_axis',(0.,-1.,0.));
#1060=DIRECTION('center_axis',(1.,0.,0.));
#1061=DIRECTION('ref_axis',(0.,1.,0.));
#1062=DIRECTION('',(0.,1.,0.));
#1063=DIRECTION('',(0.,0.,-1.));
#1064=DIRECTION('center_axis',(0.,-1.,0.));
#1065=DIRECTION('ref_axis',(1.,0.,0.));
#1066=DIRECTION('',(-1.,0.,0.));
#1067=DIRECTION('',(0.,0.,1.));
#1068=DIRECTION('center_axis',(0.,1.,0.));
#1069=DIRECTION('ref_axis',(0.,0.,-1.));
#1070=DIRECTION('',(0.,0.,1.));
#1071=DIRECTION('',(-1.,0.,0.));
#1072=DIRECTION('',(-1.,0.,0.));
#1073=DIRECTION('center_axis',(0.,0.,1.));
#1074=DIRECTION('ref_axis',(0.,1.,0.));
#1075=DIRECTION('',(0.,-1.,0.));
#1076=DIRECTION('',(-1.,0.,0.));
#1077=DIRECTION('',(0.,1.,0.));
#1078=DIRECTION('',(-1.,0.,0.));
#1079=DIRECTION('center_axis',(0.,-1.,0.));
#1080=DIRECTION('ref_axis',(0.,0.,1.));
#1081=DIRECTION('',(1.,0.,0.));
#1082=DIRECTION('',(0.,0.,1.));
#1083=DIRECTION('center_axis',(-1.,0.,0.));
#1084=DIRECTION('ref_axis',(0.,0.,1.));
#1085=DIRECTION('',(0.,0.,-1.));
#1086=DIRECTION('',(0.,-1.,0.));
#1087=DIRECTION('center_axis',(1.,0.,0.));
#1088=DIRECTION('ref_axis',(0.,1.,0.));
#1089=DIRECTION('',(0.,0.,1.));
#1090=DIRECTION('',(0.,0.,-1.));
#1091=DIRECTION('',(0.,1.,0.));
#1092=DIRECTION('center_axis',(0.,-1.,0.));
#1093=DIRECTION('ref_axis',(1.,0.,0.));
#1094=DIRECTION('',(1.,0.,0.));
#1095=DIRECTION('',(0.,0.,-1.));
#1096=DIRECTION('center_axis',(0.,1.,0.));
#1097=DIRECTION('ref_axis',(-1.,0.,0.));
#1098=DIRECTION('',(-1.,0.,0.));
#1099=DIRECTION('center_axis',(-1.,0.,0.));
#1100=DIRECTION('ref_axis',(0.,-1.,0.));
#1101=DIRECTION('',(0.,-1.,0.));
#1102=DIRECTION('center_axis',(0.,0.,1.));
#1103=DIRECTION('ref_axis',(-1.,0.,0.));
#1104=DIRECTION('center_axis',(0.,0.,1.));
#1105=DIRECTION('ref_axis',(-7.47070572800911E-7,-0.999999999999721,0.));
#1106=DIRECTION('center_axis',(0.,0.,1.));
#1107=DIRECTION('ref_axis',(-7.47070572800911E-7,-0.999999999999721,0.));
#1108=DIRECTION('center_axis',(0.,0.,1.));
#1109=DIRECTION('ref_axis',(-1.,0.,0.));
#1110=CARTESIAN_POINT('',(0.,0.,0.));
#1111=CARTESIAN_POINT('Origin',(122.688276670979,-100.931483672666,1.51));
#1112=CARTESIAN_POINT('',(123.14,-100.935386382761,9.51));
#1113=CARTESIAN_POINT('',(126.135749693923,-100.961268469922,9.51));
#1114=CARTESIAN_POINT('',(126.11648781444,-100.961102054936,9.51));
#1115=CARTESIAN_POINT('',(123.14,-100.935386382761,1.51));
#1116=CARTESIAN_POINT('',(123.14,-100.935386382761,1.51));
#1117=CARTESIAN_POINT('',(126.135749693923,-100.961268469922,1.51));
#1118=CARTESIAN_POINT('',(126.135749693923,-100.961268469922,1.51));
#1119=CARTESIAN_POINT('',(126.135749693923,-100.961268469922,1.51));
#1120=CARTESIAN_POINT('Origin',(126.164691282867,-97.6113934895045,1.51));
#1121=CARTESIAN_POINT('',(127.514691282867,-97.6113934895045,9.51));
#1122=CARTESIAN_POINT('Origin',(126.164691282867,-97.6113934895045,9.51));
#1123=CARTESIAN_POINT('',(127.514691282867,-97.6113934895045,1.51));
#1124=CARTESIAN_POINT('',(127.514691282867,-97.6113934895045,1.51));
#1125=CARTESIAN_POINT('Origin',(126.164691282867,-97.6113934895045,1.51));
#1126=CARTESIAN_POINT('Origin',(126.140164952482,-94.2614832729289,1.51));
#1127=CARTESIAN_POINT('',(126.140164952482,-94.2614832729289,9.51));
#1128=CARTESIAN_POINT('',(123.14,-94.2834489472529,9.51));
#1129=CARTESIAN_POINT('',(127.905734465284,-94.2485566753821,9.51));
#1130=CARTESIAN_POINT('',(126.140164952482,-94.2614832729289,1.51));
#1131=CARTESIAN_POINT('',(126.140164952482,-94.2614832729289,1.51));
#1132=CARTESIAN_POINT('',(123.14,-94.2834489472529,1.51));
#1133=CARTESIAN_POINT('',(126.140164952482,-94.2614832729289,1.51));
#1134=CARTESIAN_POINT('',(123.14,-94.2834489472529,1.51));
#1135=CARTESIAN_POINT('Origin',(126.164691282867,-97.6113934895045,1.51));
#1136=CARTESIAN_POINT('Origin',(126.164691282867,-97.6113934895045,9.51));
#1137=CARTESIAN_POINT('Origin',(126.164691282867,-97.6113934895045,1.51));
#1138=CARTESIAN_POINT('Origin',(123.14,-77.2100000000002,1.51));
#1139=CARTESIAN_POINT('',(123.14,-78.7100000000002,1.51));
#1140=CARTESIAN_POINT('',(123.14,-83.5849999999989,1.51));
#1141=CARTESIAN_POINT('',(123.14,-78.7100000000002,9.51));
#1142=CARTESIAN_POINT('',(123.14,-78.7100000000002,1.51));
#1143=CARTESIAN_POINT('',(123.14,-83.5849999999989,9.51));
#1144=CARTESIAN_POINT('Origin',(129.640000000035,-89.9599999999976,9.51));
#1145=CARTESIAN_POINT('',(136.139999999995,-78.7100000000002,9.51));
#1146=CARTESIAN_POINT('',(133.140000000018,-78.7100000000002,9.51));
#1147=CARTESIAN_POINT('',(136.139999999995,-101.209999999962,9.51));
#1148=CARTESIAN_POINT('',(136.139999999995,-95.8349999999988,9.51));
#1149=CARTESIAN_POINT('',(123.14,-101.209999999962,9.51));
#1150=CARTESIAN_POINT('',(125.640000000018,-101.209999999962,9.51));
#1151=CARTESIAN_POINT('',(123.14,-83.5849999999989,9.51));
#1152=CARTESIAN_POINT('Origin',(122.64,-101.709999999962,10.01));
#1153=CARTESIAN_POINT('',(121.64,-101.709999999962,10.01));
#1154=CARTESIAN_POINT('',(122.64,-101.709999999962,11.01));
#1155=CARTESIAN_POINT('Origin',(122.64,-101.709999999962,10.01));
#1156=CARTESIAN_POINT('',(122.64,-102.709999999962,10.01));
#1157=CARTESIAN_POINT('Origin',(122.64,-101.709999999962,10.01));
#1158=CARTESIAN_POINT('Origin',(122.64,-101.709999999962,10.01));
#1159=CARTESIAN_POINT('Origin',(122.64,-78.2100000000002,10.01));
#1160=CARTESIAN_POINT('',(122.64,-77.2100000000002,10.01));
#1161=CARTESIAN_POINT('',(122.64,-78.2100000000002,11.01));
#1162=CARTESIAN_POINT('Origin',(122.64,-78.2100000000002,10.01));
#1163=CARTESIAN_POINT('',(121.64,-78.2100000000002,10.01));
#1164=CARTESIAN_POINT('Origin',(122.64,-78.2100000000002,10.01));
#1165=CARTESIAN_POINT('Origin',(122.64,-78.2100000000002,10.01));
#1166=CARTESIAN_POINT('Origin',(120.64,-101.709999999962,4.01));
#1167=CARTESIAN_POINT('',(120.64,-102.709999999962,2.01));
#1168=CARTESIAN_POINT('',(122.64,-102.709999999962,4.01));
#1169=CARTESIAN_POINT('Origin',(120.64,-102.709999999962,4.01));
#1170=CARTESIAN_POINT('',(121.64,-101.709999999962,4.01));
#1171=CARTESIAN_POINT('Origin',(122.64,-101.709999999962,4.01));
#1172=CARTESIAN_POINT('',(120.64,-101.709999999962,3.01));
#1173=CARTESIAN_POINT('Origin',(120.64,-101.709999999962,4.01));
#1174=CARTESIAN_POINT('Origin',(120.64,-101.709999999962,2.01));
#1175=CARTESIAN_POINT('Origin',(122.64,-101.709999999962,1.51));
#1176=CARTESIAN_POINT('',(121.64,-101.709999999962,1.51));
#1177=CARTESIAN_POINT('',(122.64,-102.709999999962,1.51));
#1178=CARTESIAN_POINT('Origin',(120.64,-78.2100000000002,4.01));
#1179=CARTESIAN_POINT('',(121.64,-78.2100000000002,4.01));
#1180=CARTESIAN_POINT('',(120.64,-78.2100000000002,3.01));
#1181=CARTESIAN_POINT('Origin',(120.64,-78.2100000000002,4.01));
#1182=CARTESIAN_POINT('',(122.64,-77.2100000000002,4.01));
#1183=CARTESIAN_POINT('Origin',(122.64,-78.2100000000002,4.01));
#1184=CARTESIAN_POINT('',(120.64,-77.2100000000002,2.01));
#1185=CARTESIAN_POINT('Origin',(120.64,-77.2100000000002,4.01));
#1186=CARTESIAN_POINT('Origin',(120.64,-78.2100000000002,2.01));
#1187=CARTESIAN_POINT('Origin',(122.64,-78.2100000000002,1.51));
#1188=CARTESIAN_POINT('',(122.64,-77.2100000000002,1.51));
#1189=CARTESIAN_POINT('',(121.64,-78.2100000000002,1.51));
#1190=CARTESIAN_POINT('Origin',(104.139999999995,-101.709999999962,2.01));
#1191=CARTESIAN_POINT('',(103.139999999995,-101.709999999962,2.01));
#1192=CARTESIAN_POINT('',(104.139999999995,-101.709999999962,3.01));
#1193=CARTESIAN_POINT('Origin',(104.139999999995,-101.709999999962,2.01));
#1194=CARTESIAN_POINT('',(104.139999999995,-102.709999999962,2.01));
#1195=CARTESIAN_POINT('Origin',(104.139999999995,-101.709999999962,2.01));
#1196=CARTESIAN_POINT('Origin',(104.139999999995,-101.709999999962,2.01));
#1197=CARTESIAN_POINT('Origin',(104.139999999995,-101.709999999962,1.51));
#1198=CARTESIAN_POINT('',(103.139999999995,-101.709999999962,0.01));
#1199=CARTESIAN_POINT('',(104.139999999995,-102.710000000003,0.01));
#1200=CARTESIAN_POINT('Origin',(104.139999999995,-101.709999999962,0.01));
#1201=CARTESIAN_POINT('',(104.139999999995,-102.709999999962,1.51));
#1202=CARTESIAN_POINT('',(103.139999999995,-101.709999999962,1.51));
#1203=CARTESIAN_POINT('Origin',(117.639999999999,-101.709999999962,2.01));
#1204=CARTESIAN_POINT('',(117.639999999999,-101.709999999962,3.01));
#1205=CARTESIAN_POINT('',(117.639999999999,-102.709999999962,2.01));
#1206=CARTESIAN_POINT('Origin',(104.139999999995,-78.2100000000002,2.01));
#1207=CARTESIAN_POINT('',(104.139999999995,-77.2100000000002,2.01));
#1208=CARTESIAN_POINT('',(104.139999999995,-78.2100000000002,3.01));
#1209=CARTESIAN_POINT('Origin',(104.139999999995,-78.2100000000002,2.01));
#1210=CARTESIAN_POINT('',(103.139999999995,-78.2100000000002,2.01));
#1211=CARTESIAN_POINT('Origin',(104.139999999995,-78.2100000000002,2.01));
#1212=CARTESIAN_POINT('Origin',(104.139999999995,-78.2100000000002,2.01));
#1213=CARTESIAN_POINT('Origin',(104.139999999995,-78.2100000000002,1.51));
#1214=CARTESIAN_POINT('',(104.139999999995,-77.2100000000002,0.01));
#1215=CARTESIAN_POINT('',(103.139999999995,-78.2100000000002,0.01));
#1216=CARTESIAN_POINT('Origin',(104.139999999995,-78.2100000000002,0.01));
#1217=CARTESIAN_POINT('',(103.139999999995,-78.2100000000002,1.51));
#1218=CARTESIAN_POINT('',(104.139999999995,-77.2100000000002,1.51));
#1219=CARTESIAN_POINT('Origin',(104.139999999995,-83.5850000000006,2.01));
#1220=CARTESIAN_POINT('',(104.139999999995,-83.5850000000006,3.01));
#1221=CARTESIAN_POINT('',(103.139999999995,-83.5850000000006,2.01));
#1222=CARTESIAN_POINT('Origin',(125.139999999999,-78.2100000000002,2.01));
#1223=CARTESIAN_POINT('',(125.139999999999,-78.2100000000002,3.01));
#1224=CARTESIAN_POINT('',(125.139999999999,-77.2100000000002,2.01));
#1225=CARTESIAN_POINT('Origin',(120.64,-83.5850000000006,4.01));
#1226=CARTESIAN_POINT('',(121.64,-83.5850000000006,4.01));
#1227=CARTESIAN_POINT('',(120.64,-83.5850000000006,3.01));
#1228=CARTESIAN_POINT('Origin',(122.64,-83.5849999999989,10.01));
#1229=CARTESIAN_POINT('',(122.64,-83.5849999999989,11.01));
#1230=CARTESIAN_POINT('',(121.64,-83.5849999999989,10.01));
#1231=CARTESIAN_POINT('Origin',(133.140000000018,-78.2100000000002,10.01));
#1232=CARTESIAN_POINT('',(136.639999999995,-78.21,11.01));
#1233=CARTESIAN_POINT('',(136.64,-77.2100000000002,10.01));
#1234=CARTESIAN_POINT('Origin',(136.64,-78.2100000000002,10.01));
#1235=CARTESIAN_POINT('',(133.140000000018,-77.2100000000002,10.01));
#1236=CARTESIAN_POINT('',(133.140000000018,-78.2100000000002,11.01));
#1237=CARTESIAN_POINT('Origin',(125.640000000018,-101.709999999962,10.01));
#1238=CARTESIAN_POINT('',(136.64,-102.709999999962,10.01));
#1239=CARTESIAN_POINT('',(136.64,-101.709999999962,11.01));
#1240=CARTESIAN_POINT('Origin',(136.64,-101.709999999962,10.01));
#1241=CARTESIAN_POINT('',(125.640000000018,-101.709999999962,11.01));
#1242=CARTESIAN_POINT('',(125.640000000018,-102.709999999962,10.01));
#1243=CARTESIAN_POINT('Origin',(136.639999999995,-95.8349999999988,10.01));
#1244=CARTESIAN_POINT('',(137.639999999995,-101.71,10.01));
#1245=CARTESIAN_POINT('Origin',(136.639999999995,-101.71,10.01));
#1246=CARTESIAN_POINT('',(137.639999999995,-78.21,10.01));
#1247=CARTESIAN_POINT('',(137.639999999995,-95.8349999999988,10.01));
#1248=CARTESIAN_POINT('Origin',(136.639999999995,-78.21,10.01));
#1249=CARTESIAN_POINT('',(136.639999999995,-95.8349999999988,11.01));
#1250=CARTESIAN_POINT('Origin',(136.64000074707,-101.710000747,10.01));
#1251=CARTESIAN_POINT('Origin',(136.64000074707,-101.710000747,10.01));
#1252=CARTESIAN_POINT('Origin',(136.64000074707,-78.20999925292,10.01));
#1253=CARTESIAN_POINT('Origin',(136.64000074707,-78.20999925292,10.01));
#1254=CARTESIAN_POINT('Origin',(104.389999999995,-89.9600000000013,0.01));
#1255=CARTESIAN_POINT('',(105.639999999995,-77.2100000000002,0.01));
#1256=CARTESIAN_POINT('',(105.639999999995,-77.2100000000002,0.01));
#1257=CARTESIAN_POINT('',(105.639999999995,-102.710000000003,0.01));
#1258=CARTESIAN_POINT('',(105.639999999995,-102.710000000003,0.01));
#1259=CARTESIAN_POINT('',(103.139999999995,-102.710000000003,0.01));
#1260=CARTESIAN_POINT('',(103.139999999995,-77.2100000000002,0.01));
#1261=CARTESIAN_POINT('Origin',(136.64,-77.2100000000002,1.51));
#1262=CARTESIAN_POINT('',(136.64,-77.2100000000002,1.51));
#1263=CARTESIAN_POINT('',(136.64,-77.2100000000002,1.51));
#1264=CARTESIAN_POINT('',(105.639999999995,-77.2100000000002,1.51));
#1265=CARTESIAN_POINT('',(137.639999999995,-77.2100000000002,1.51));
#1266=CARTESIAN_POINT('',(105.639999999995,-77.2100000000002,1.51));
#1267=CARTESIAN_POINT('Origin',(136.64000074707,-78.20999925292,1.51));
#1268=CARTESIAN_POINT('',(137.639999999995,-78.21,1.51));
#1269=CARTESIAN_POINT('',(137.639999999995,-78.21,1.51));
#1270=CARTESIAN_POINT('Origin',(136.64000074707,-78.20999925292,1.51));
#1271=CARTESIAN_POINT('Origin',(137.639999999995,-101.71,1.51));
#1272=CARTESIAN_POINT('',(137.639999999995,-101.71,1.51));
#1273=CARTESIAN_POINT('',(137.639999999995,-101.71,1.51));
#1274=CARTESIAN_POINT('',(137.639999999995,-101.218514328477,1.51));
#1275=CARTESIAN_POINT('',(137.639999999995,-102.709999999962,1.51));
#1276=CARTESIAN_POINT('',(137.639999999995,-101.218514328477,9.01));
#1277=CARTESIAN_POINT('',(137.639999999995,-101.218514328477,1.51));
#1278=CARTESIAN_POINT('',(137.639999999995,-78.7274293668735,9.01));
#1279=CARTESIAN_POINT('',(137.639999999995,-101.464257164239,9.01));
#1280=CARTESIAN_POINT('',(137.639999999995,-78.7274293668735,1.51));
#1281=CARTESIAN_POINT('',(137.639999999995,-78.7274293668735,5.26));
#1282=CARTESIAN_POINT('',(137.639999999995,-102.709999999962,1.51));
#1283=CARTESIAN_POINT('Origin',(121.64,-77.2100000000002,1.51));
#1284=CARTESIAN_POINT('Origin',(113.639999999998,-89.9600000000011,3.01));
#1285=CARTESIAN_POINT('Origin',(129.640000000035,-89.9599999999976,11.01));
#1286=CARTESIAN_POINT('Origin',(103.139999999995,-77.2100000000002,1.51));
#1287=CARTESIAN_POINT('Origin',(105.639999999995,-102.710000000003,1.51));
#1288=CARTESIAN_POINT('',(105.639999999995,-102.709999999962,1.51));
#1289=CARTESIAN_POINT('',(105.639999999995,-102.710000000003,1.51));
#1290=CARTESIAN_POINT('',(105.639999999995,-102.710000000003,1.51));
#1291=CARTESIAN_POINT('Origin',(121.64,-102.709999999962,1.51));
#1292=CARTESIAN_POINT('',(136.64,-102.709999999962,1.51));
#1293=CARTESIAN_POINT('',(137.639999999995,-102.710000000003,1.51));
#1294=CARTESIAN_POINT('',(136.64,-102.709999999962,1.51));
#1295=CARTESIAN_POINT('Origin',(137.639999999995,-78.7274293668735,9.01));
#1296=CARTESIAN_POINT('',(136.139999999995,-78.7274293668735,1.51));
#1297=CARTESIAN_POINT('',(136.139999999995,-78.7274293668735,9.01));
#1298=CARTESIAN_POINT('',(136.139999999995,-78.7274293668735,5.26));
#1299=CARTESIAN_POINT('',(133.640000000015,-78.7274293668736,1.51));
#1300=CARTESIAN_POINT('',(137.639999999995,-78.7274293668735,9.01));
#1301=CARTESIAN_POINT('Origin',(137.639999999995,-101.218514328477,9.01));
#1302=CARTESIAN_POINT('',(136.139999999995,-101.209999999962,9.01));
#1303=CARTESIAN_POINT('',(136.139999999995,-101.464257164239,9.01));
#1304=CARTESIAN_POINT('',(135.639999999995,-101.218514328477,9.01));
#1305=CARTESIAN_POINT('',(137.639999999995,-101.218514328477,9.01));
#1306=CARTESIAN_POINT('',(135.639999999995,-101.209999999962,9.01));
#1307=CARTESIAN_POINT('',(135.639999999995,-78.7274293668735,9.01));
#1308=CARTESIAN_POINT('',(129.639999999997,-101.209999999962,9.01));
#1309=CARTESIAN_POINT('Origin',(137.639999999995,-101.218514328477,1.51));
#1310=CARTESIAN_POINT('',(135.639999999995,-101.218514328477,1.51));
#1311=CARTESIAN_POINT('',(133.640000000015,-101.218514328477,1.51));
#1312=CARTESIAN_POINT('',(135.639999999995,-101.218514328477,9.01));
#1313=CARTESIAN_POINT('Origin',(135.639999999995,-89.9729718476753,5.26));
#1314=CARTESIAN_POINT('',(135.639999999995,-101.209999999962,1.51));
#1315=CARTESIAN_POINT('',(135.639999999995,-101.209999999962,3.385));
#1316=CARTESIAN_POINT('',(135.639999999995,-89.9664859238365,1.51));
#1317=CARTESIAN_POINT('Origin',(136.139999999995,-101.71,1.51));
#1318=CARTESIAN_POINT('',(136.139999999995,-101.209999999962,1.51));
#1319=CARTESIAN_POINT('',(136.139999999995,-78.7100000000002,1.51));
#1320=CARTESIAN_POINT('',(136.139999999995,-78.7100000000002,1.51));
#1321=CARTESIAN_POINT('',(136.139999999995,-95.8349999999988,1.51));
#1322=CARTESIAN_POINT('Origin',(121.64,-101.209999999962,1.51));
#1323=CARTESIAN_POINT('',(123.14,-101.209999999962,1.51));
#1324=CARTESIAN_POINT('',(125.640000000018,-101.209999999962,1.51));
#1325=CARTESIAN_POINT('',(123.14,-101.209999999962,1.51));
#1326=CARTESIAN_POINT('Origin',(136.64,-78.7100000000002,1.51));
#1327=CARTESIAN_POINT('',(133.140000000018,-78.7100000000002,1.51));
#1328=CARTESIAN_POINT('Origin',(123.14,-77.2100000000002,1.51));
#1329=CARTESIAN_POINT('',(123.14,-83.5849999999989,1.51));
#1330=CARTESIAN_POINT('Origin',(129.640000000035,-89.9599999999976,9.51));
#1331=CARTESIAN_POINT('Origin',(136.64000074707,-101.710000747,1.51));
#1332=CARTESIAN_POINT('Origin',(136.64000074707,-101.710000747,1.51));
#1333=CARTESIAN_POINT('Origin',(129.640000000035,-89.9599999999976,1.51));
#1334=UNCERTAINTY_MEASURE_WITH_UNIT(LENGTH_MEASURE(0.01),#1338,
'DISTANCE_ACCURACY_VALUE',
'Maximum model space distance between geometric entities at asserted c
onnectivities');
#1335=UNCERTAINTY_MEASURE_WITH_UNIT(LENGTH_MEASURE(0.01),#1338,
'DISTANCE_ACCURACY_VALUE',
'Maximum model space distance between geometric entities at asserted c
onnectivities');
#1336=(
GEOMETRIC_REPRESENTATION_CONTEXT(3)
GLOBAL_UNCERTAINTY_ASSIGNED_CONTEXT((#1334))
GLOBAL_UNIT_ASSIGNED_CONTEXT((#1338,#1339,#1340))
REPRESENTATION_CONTEXT('','3D')
);
#1337=(
GEOMETRIC_REPRESENTATION_CONTEXT(3)
GLOBAL_UNCERTAINTY_ASSIGNED_CONTEXT((#1335))
GLOBAL_UNIT_ASSIGNED_CONTEXT((#1338,#1339,#1340))
REPRESENTATION_CONTEXT('','3D')
);
#1338=(
LENGTH_UNIT()
NAMED_UNIT(*)
SI_UNIT(.MILLI.,.METRE.)
);
#1339=(
NAMED_UNIT(*)
PLANE_ANGLE_UNIT()
SI_UNIT($,.RADIAN.)
);
#1340=(
NAMED_UNIT(*)
SI_UNIT($,.STERADIAN.)
SOLID_ANGLE_UNIT()
);
#1341=SHAPE_DEFINITION_REPRESENTATION(#1342,#1343);
#1342=PRODUCT_DEFINITION_SHAPE('',$,#1345);
#1343=SHAPE_REPRESENTATION('',(#788),#1336);
#1344=PRODUCT_DEFINITION_CONTEXT('part definition',#1349,'design');
#1345=PRODUCT_DEFINITION('nfcxpansion 1','nfcxpansion v2',#1346,#1344);
#1346=PRODUCT_DEFINITION_FORMATION('',$,#1351);
#1347=PRODUCT_RELATED_PRODUCT_CATEGORY('nfcxpansion v2',
'nfcxpansion v2',(#1351));
#1348=APPLICATION_PROTOCOL_DEFINITION('international standard',
'automotive_design',2009,#1349);
#1349=APPLICATION_CONTEXT(
'Core Data for Automotive Mechanical Design Process');
#1350=PRODUCT_CONTEXT('part definition',#1349,'mechanical');
#1351=PRODUCT('nfcxpansion 1','nfcxpansion v2',
'KiCad electronic assembly',(#1350));
#1352=PRESENTATION_STYLE_ASSIGNMENT((#1353));
#1353=SURFACE_STYLE_USAGE(.BOTH.,#1354);
#1354=SURFACE_SIDE_STYLE('',(#1355));
#1355=SURFACE_STYLE_FILL_AREA(#1356);
#1356=FILL_AREA_STYLE('Steel - Satin',(#1357));
#1357=FILL_AREA_STYLE_COLOUR('Steel - Satin',#1358);
#1358=COLOUR_RGB('Steel - Satin',0.627450980392157,0.627450980392157,0.627450980392157);
ENDSEC;
END-ISO-10303-21;
